<svg width="20" height="20" viewBox="0 0 20 20" fill="none" xmlns="http://www.w3.org/2000/svg">
<path d="M12.2139 15.8994C12.5824 15.9735 12.8209 16.3325 12.7471 16.7012C12.477 18.049 11.2171 18.9999 9.7832 19C8.34915 19 7.08845 18.0491 6.81836 16.7012C6.74457 16.3324 6.98378 15.9733 7.35254 15.8994C7.72129 15.8256 8.08034 16.0649 8.1543 16.4336C8.28354 17.0784 8.92794 17.6377 9.7832 17.6377C10.6384 17.6376 11.2829 17.0784 11.4121 16.4336C11.4861 16.0649 11.8451 15.8255 12.2139 15.8994ZM9.88086 1C13.1587 1 15.8164 3.65766 15.8164 6.93555V10.1943C16.9265 10.4197 17.7616 11.4015 17.7617 12.5781C17.7617 13.9214 16.6733 15.0106 15.3301 15.0107H4.43262C3.08922 15.0107 2 13.9215 2 12.5781C2.00012 11.4014 2.83609 10.4197 3.94629 10.1943V6.93555C3.94629 3.65774 6.60308 1.00012 9.88086 1ZM9.88086 2.3623C7.35538 2.36242 5.30859 4.41004 5.30859 6.93555V10.5127C5.30859 10.9754 4.98179 11.3737 4.52832 11.4658L4.2168 11.5293C3.72897 11.6284 3.36242 12.0621 3.3623 12.5781C3.3623 13.1692 3.84152 13.6484 4.43262 13.6484H15.3301C15.921 13.6482 16.4004 13.1691 16.4004 12.5781C16.4003 12.062 16.0328 11.6283 15.5449 11.5293L15.2334 11.4658C14.78 11.3737 14.4541 10.9754 14.4541 10.5127V6.93555C14.4541 4.40996 12.4064 2.3623 9.88086 2.3623Z" fill="#192546"/>
</svg>
