<svg width="30" height="30" viewBox="0 0 30 30" fill="none" xmlns="http://www.w3.org/2000/svg">
<path d="M22.625 7.4248C24.2691 7.4248 25.5749 8.79136 25.5752 10.4424V20.2139C25.5752 21.8651 24.2693 23.2314 22.625 23.2314H8.375C6.73071 23.2314 5.4248 21.8651 5.4248 20.2139V10.4424C5.42505 8.79136 6.73087 7.4248 8.375 7.4248H22.625ZM16.8242 16.5156C16.4138 16.7265 15.9604 16.8369 15.5 16.8369C15.0396 16.8369 14.5862 16.7265 14.1758 16.5156L6.5752 12.6064V20.2139C6.5752 21.2609 7.39592 22.082 8.375 22.082H22.625C23.6041 22.082 24.4248 21.2609 24.4248 20.2139V12.6064L16.8242 16.5156ZM8.375 8.5752C7.39607 8.5752 6.57544 9.39553 6.5752 10.4424V11.3145L14.7012 15.4932L14.8916 15.5781C15.0865 15.6507 15.2925 15.6875 15.5 15.6875C15.7765 15.6875 16.0499 15.621 16.2988 15.4932L24.4248 11.3145V10.4424C24.4246 9.39553 23.6039 8.5752 22.625 8.5752H8.375Z" fill="#192546"/>
</svg>
